<svg width="260" height="260" viewBox="0 0 260 260" fill="none" xmlns="http://www.w3.org/2000/svg">
<rect width="260" height="260" fill="white"/>
<path d="M51.648 153.384C48.32 153.384 45.12 152.851 42.048 151.784C39.0187 150.675 36.672 149.267 35.008 147.56L36.864 143.912C38.4427 145.448 40.5547 146.749 43.2 147.816C45.888 148.84 48.704 149.352 51.648 149.352C54.464 149.352 56.7467 149.011 58.496 148.328C60.288 147.603 61.5893 146.643 62.4 145.448C63.2533 144.253 63.68 142.931 63.68 141.48C63.68 139.731 63.168 138.323 62.144 137.256C61.1627 136.189 59.8613 135.357 58.24 134.76C56.6187 134.12 54.8267 133.565 52.864 133.096C50.9013 132.627 48.9387 132.136 46.976 131.624C45.0133 131.069 43.2 130.344 41.536 129.448C39.9147 128.552 38.592 127.379 37.568 125.928C36.5867 124.435 36.096 122.493 36.096 120.104C36.096 117.885 36.672 115.859 37.824 114.024C39.0187 112.147 40.832 110.653 43.264 109.544C45.696 108.392 48.8107 107.816 52.608 107.816C55.1253 107.816 57.6213 108.179 60.096 108.904C62.5707 109.587 64.704 110.547 66.496 111.784L64.896 115.56C62.976 114.28 60.928 113.341 58.752 112.744C56.6187 112.147 54.5493 111.848 52.544 111.848C49.856 111.848 47.6373 112.211 45.888 112.936C44.1387 113.661 42.8373 114.643 41.984 115.88C41.1733 117.075 40.768 118.44 40.768 119.976C40.768 121.725 41.2587 123.133 42.24 124.2C43.264 125.267 44.5867 126.099 46.208 126.696C47.872 127.293 49.6853 127.827 51.648 128.296C53.6107 128.765 55.552 129.277 57.472 129.832C59.4347 130.387 61.2267 131.112 62.848 132.008C64.512 132.861 65.8347 134.013 66.816 135.464C67.84 136.915 68.352 138.813 68.352 141.16C68.352 143.336 67.7547 145.363 66.56 147.24C65.3653 149.075 63.5307 150.568 61.056 151.72C58.624 152.829 55.488 153.384 51.648 153.384ZM94.863 119.08C97.5937 119.08 99.983 119.613 102.031 120.68C104.122 121.704 105.743 123.283 106.895 125.416C108.09 127.549 108.687 130.237 108.687 133.48V153H104.143V133.928C104.143 130.387 103.247 127.72 101.455 125.928C99.7057 124.093 97.231 123.176 94.031 123.176C91.6417 123.176 89.551 123.667 87.759 124.648C86.0097 125.587 84.6443 126.973 83.663 128.808C82.7243 130.6 82.255 132.776 82.255 135.336V153H77.711V105.512H82.255V128.616L81.359 126.888C82.4257 124.456 84.1323 122.557 86.479 121.192C88.8257 119.784 91.6203 119.08 94.863 119.08ZM135.233 153.32C131.734 153.32 128.662 152.595 126.017 151.144C123.372 149.651 121.302 147.624 119.809 145.064C118.316 142.461 117.569 139.496 117.569 136.168C117.569 132.84 118.273 129.896 119.681 127.336C121.132 124.776 123.094 122.771 125.569 121.32C128.086 119.827 130.902 119.08 134.017 119.08C137.174 119.08 139.969 119.805 142.401 121.256C144.876 122.664 146.817 124.669 148.225 127.272C149.633 129.832 150.337 132.797 150.337 136.168C150.337 136.381 150.316 136.616 150.273 136.872C150.273 137.085 150.273 137.32 150.273 137.576H121.025V134.184H147.841L146.049 135.528C146.049 133.096 145.516 130.941 144.449 129.064C143.425 127.144 142.017 125.651 140.225 124.584C138.433 123.517 136.364 122.984 134.017 122.984C131.713 122.984 129.644 123.517 127.809 124.584C125.974 125.651 124.545 127.144 123.521 129.064C122.497 130.984 121.985 133.181 121.985 135.656V136.36C121.985 138.92 122.54 141.181 123.649 143.144C124.801 145.064 126.38 146.579 128.385 147.688C130.433 148.755 132.758 149.288 135.361 149.288C137.409 149.288 139.308 148.925 141.057 148.2C142.849 147.475 144.385 146.365 145.665 144.872L148.225 147.816C146.732 149.608 144.854 150.973 142.593 151.912C140.374 152.851 137.921 153.32 135.233 153.32ZM159.586 153V105.512H164.13V153H159.586ZM177.542 153V115.176C177.542 112.189 178.416 109.779 180.166 107.944C181.915 106.109 184.432 105.192 187.718 105.192C188.998 105.192 190.235 105.363 191.43 105.704C192.624 106.045 193.627 106.579 194.438 107.304L192.902 110.696C192.262 110.141 191.515 109.736 190.662 109.48C189.808 109.181 188.891 109.032 187.91 109.032C185.99 109.032 184.518 109.565 183.494 110.632C182.47 111.699 181.958 113.277 181.958 115.368V120.488L182.086 122.6V153H177.542ZM171.526 123.176V119.4H192.326V123.176H171.526ZM199.342 165.736C197.763 165.736 196.249 165.48 194.798 164.968C193.39 164.456 192.174 163.688 191.15 162.664L193.262 159.272C194.115 160.083 195.033 160.701 196.014 161.128C197.038 161.597 198.169 161.832 199.406 161.832C200.899 161.832 202.179 161.405 203.246 160.552C204.355 159.741 205.401 158.291 206.382 156.2L208.558 151.272L209.07 150.568L222.894 119.4H227.374L210.542 157.032C209.603 159.208 208.558 160.936 207.406 162.216C206.297 163.496 205.081 164.392 203.758 164.904C202.435 165.459 200.963 165.736 199.342 165.736ZM208.302 153.96L192.814 119.4H197.55L211.246 150.248L208.302 153.96Z" fill="black"/>
</svg>
